<svg width="34" height="35" viewBox="0 0 34 35" fill="none" xmlns="http://www.w3.org/2000/svg">
<path d="M22.7609 0.869873C23.1808 0.869873 23.5836 1.03669 23.8805 1.33362C24.1774 1.63055 24.3442 2.03328 24.3442 2.45321V4.03654H32.2609V13.5365H29.0642L33.412 25.4828C33.7219 26.2865 33.8646 27.1449 33.8314 28.0056C33.7981 28.8663 33.5897 29.7112 33.2188 30.4886C32.8479 31.266 32.3223 31.9596 31.6741 32.5269C31.026 33.0942 30.2689 33.5234 29.4493 33.7881C28.6296 34.0529 27.7646 34.1476 26.907 34.0666C26.0495 33.9856 25.2175 33.7305 24.4619 33.3169C23.7064 32.9034 23.0431 32.34 22.5127 31.6614C21.9822 30.9827 21.5958 30.203 21.3771 29.3699H14.6447C14.2849 30.7595 13.4639 31.9857 12.3161 32.8478C11.1684 33.7099 9.76192 34.1568 8.32706 34.1152C6.89221 34.0736 5.51399 33.5461 4.41808 32.619C3.32218 31.6919 2.57353 30.4202 2.29474 29.012C1.78163 28.744 1.35181 28.3405 1.052 27.8452C0.752191 27.35 0.593868 26.7821 0.594239 26.2032V10.3699C0.594239 9.94995 0.761054 9.54722 1.05799 9.25029C1.35492 8.95335 1.75765 8.78654 2.17757 8.78654H13.2609C13.6808 8.78654 14.0836 8.95335 14.3805 9.25029C14.6774 9.54722 14.8442 9.94995 14.8442 10.3699V18.2865C14.8442 18.7065 15.0111 19.1092 15.308 19.4061C15.6049 19.7031 16.0076 19.8699 16.4276 19.8699H19.5942C20.0142 19.8699 20.4169 19.7031 20.7138 19.4061C21.0108 19.1092 21.1776 18.7065 21.1776 18.2865V4.03654H16.4276V0.869873H22.7609ZM27.5109 24.6199C26.8375 24.6201 26.1817 24.8349 25.6387 25.2333C25.0957 25.6316 24.6939 26.1927 24.4915 26.835C24.2892 27.4773 24.2968 28.1673 24.5134 28.805C24.73 29.4426 25.1442 29.9946 25.6959 30.3808C26.2476 30.7669 26.908 30.9672 27.5812 30.9524C28.2545 30.9377 28.9055 30.7087 29.4397 30.2987C29.974 29.8887 30.3636 29.3191 30.552 28.6726C30.7405 28.0261 30.7179 27.3363 30.4876 26.7035L30.4622 26.6339C30.2302 26.0401 29.8243 25.5302 29.2978 25.1709C28.7712 24.8115 28.1484 24.6195 27.5109 24.6199ZM8.51091 24.6199C7.67105 24.6199 6.8656 24.9535 6.27173 25.5474C5.67787 26.1412 5.34424 26.9467 5.34424 27.7865C5.34424 28.6264 5.67787 29.4318 6.27173 30.0257C6.8656 30.6196 7.67105 30.9532 8.51091 30.9532C9.35076 30.9532 10.1562 30.6196 10.7501 30.0257C11.3439 29.4318 11.6776 28.6264 11.6776 27.7865C11.6776 26.9467 11.3439 26.1412 10.7501 25.5474C10.1562 24.9535 9.35076 24.6199 8.51091 24.6199ZM11.6776 11.9532H3.76091V15.1199H11.6776V11.9532ZM29.0942 7.20321H24.3442V10.3699H29.0942V7.20321Z" fill="#92929D"/>
</svg>
