<svg width="15" height="15" viewBox="0 0 15 15" fill="none" xmlns="http://www.w3.org/2000/svg">
<path fill-rule="evenodd" clip-rule="evenodd" d="M0.833008 7.56828C0.833008 11.2502 3.81778 14.2349 7.49967 14.2349C11.1816 14.2349 14.1663 11.2502 14.1663 7.56828C14.1663 3.88638 11.1816 0.901611 7.49967 0.901611C3.81778 0.901611 0.833008 3.88638 0.833008 7.56828C0.833008 7.56828 0.833008 11.2502 0.833008 7.56828ZM12.9542 7.56828C12.9542 10.5807 10.5121 13.0228 7.49967 13.0228C4.48721 13.0228 2.04513 10.5807 2.04513 7.56828C2.04513 4.55582 4.48721 2.11373 7.49967 2.11373C10.5121 2.11373 12.9542 4.55582 12.9542 7.56828C12.9542 7.56828 12.9542 10.5807 12.9542 7.56828ZM6.49967 8.38977L10.0283 4.86117L10.9711 5.80398L6.49967 10.2754L4.02827 7.80398L4.97108 6.86117L6.49967 8.38977Z" fill="#00CE2D"/>
</svg>
