<svg width="26" height="18" viewBox="0 0 26 18" fill="none" xmlns="http://www.w3.org/2000/svg">
<path d="M12.28 4.14319L10.7411 7.88064C10.6889 8.00737 10.5704 8.09446 10.4339 8.10644L2.56223 8.79816C2.3691 8.81511 2.22253 8.9794 2.22759 9.17312L2.38766 15.352C2.39208 15.5219 2.51261 15.6665 2.67893 15.7016L11.9459 17.6508C12.1725 17.6985 12.4027 17.7221 12.633 17.7216L12.6331 15.889V4.21307C12.6331 3.70301 12.4742 3.67157 12.28 4.14319ZM11.2024 15.6661L7.72357 15.1059V13.2824H11.2024V15.6661ZM9.68126 7.21824L0.404359 8.15564C0.12095 8.18427 -0.0855627 7.89309 0.0351758 7.63513L2.50539 2.35501C2.55564 2.24757 2.65476 2.17101 2.77142 2.1496L12.9647 0.277386L9.9797 7.00212C9.92626 7.12248 9.81236 7.20498 9.68126 7.21824ZM23.4378 8.79816L15.5661 8.10648C15.4296 8.0945 15.3111 8.00741 15.259 7.88068L13.72 4.14323C13.5258 3.67157 13.3669 3.70301 13.3669 4.21307V15.889L13.3671 17.7215C13.5973 17.7221 13.8276 17.6984 14.0542 17.6508L23.3211 15.7015C23.4875 15.6665 23.608 15.5219 23.6124 15.352L23.7724 9.17312C23.7775 8.97935 23.6308 8.81511 23.4378 8.79816ZM20.1983 12.0985L19.7636 12.1106L19.7548 14.8468C19.7544 14.9673 19.6319 15.0826 19.4797 15.1044L18.7672 15.2069C18.6044 15.2303 18.4712 15.1469 18.4715 15.0203L18.4782 12.1463L17.9809 12.16C17.7391 12.1667 17.5861 11.9728 17.7092 11.8124L18.8918 10.2713C19.0039 10.1253 19.2788 10.1387 19.3868 10.2926L20.4249 11.7721C20.5233 11.9124 20.3989 12.0929 20.1983 12.0985ZM25.5956 8.15564L16.3187 7.21824C16.1876 7.20498 16.0736 7.12248 16.0202 7.00208L13.0353 0.277344L23.2286 2.14956C23.3452 2.17097 23.4443 2.24752 23.4946 2.35496L25.9648 7.63509C26.0855 7.89309 25.879 8.18427 25.5956 8.15564Z" fill="#053582"/>
</svg>
