<svg width="24" height="24" viewBox="0 0 24 24" fill="none" xmlns="http://www.w3.org/2000/svg">
<path d="M1.94922 5.00067C1.69332 5.02626 1.49769 5.24154 1.49805 5.49871V18.4985C1.49698 18.7762 1.72331 19.0016 2.00097 19.0005H22.0017C22.2779 18.9995 22.5008 18.7748 22.4997 18.4985V5.49871C22.4988 5.22392 22.2765 5.00164 22.0017 5.00067H2.00097C1.98376 4.99978 1.96643 4.99978 1.94922 5.00067Z" fill="#59A9E6"/>
<path d="M18.788 5C18.9283 5.82562 18.9992 6.66154 18.9999 7.49899C18.9972 9.69377 18.5129 11.8612 17.5812 13.8484C16.6494 15.8356 15.2929 17.5941 13.6074 18.9998H22.0018C22.2781 18.9988 22.5009 18.7741 22.4999 18.4979V5.49804C22.4989 5.22326 22.2766 5.00097 22.0018 5H18.788Z" fill="#3C99E1"/>
<path d="M1.5 7.5H22.5V10.5H1.5L1.5 7.5Z" fill="#1D7FCB"/>
<path d="M18.999 7.5C18.9975 8.50778 18.8945 9.51285 18.6914 10.5H22V9.49997H21.999V8.49999H22V7.5H18.999Z" fill="#1C76BD"/>
<path d="M14.498 12C14.2218 12.001 13.9989 12.2257 14 12.5019V16.5029C14.001 16.7777 14.2233 16.9999 14.498 17.0009H19.4999C19.7747 16.9999 19.997 16.7777 19.998 16.5029V12.5019C19.999 12.2257 19.7762 12.001 19.4999 12H14.498Z" fill="#FFA733"/>
<path d="M14 14V15.0002H20V14H14Z" fill="#FF9811"/>
<path d="M18.2978 12C17.7194 13.8251 16.7969 15.5227 15.5801 17.0009H19.5C19.7747 16.9999 19.997 16.7777 19.998 16.5029V12.5019C19.9991 12.2257 19.7762 12.001 19.5 12H18.2978Z" fill="#FF9811"/>
<path d="M17.5029 14C17.3414 14.3401 17.1613 14.674 16.9746 15.001H19.999V14H17.5029Z" fill="#F08800"/>
</svg>
