<svg width="25" height="25" viewBox="0 0 25 25" fill="none" xmlns="http://www.w3.org/2000/svg">
<path d="M23.5337 13.248L14.6743 17.6777C14.0493 17.9902 13.3071 18.1465 12.4478 18.1465C11.5884 18.1465 10.8462 17.9902 10.2212 17.6777L1.36182 13.248C0.752441 12.9355 0.447754 12.5645 0.447754 12.1348C0.447754 11.7051 0.752441 11.334 1.36182 11.0215L3.65869 9.89648L5.29932 10.7168L1.94775 12.1465L12.4478 16.6465L22.9478 12.1465L19.5962 10.7168L21.2368 9.89648L23.5337 11.0215C24.1431 11.334 24.4478 11.7051 24.4478 12.1348C24.4478 12.5645 24.1431 12.9355 23.5337 13.248ZM23.5337 7.24805L14.6743 11.6777C14.0493 11.9902 13.3071 12.1465 12.4478 12.1465C11.5884 12.1465 10.8462 11.9902 10.2212 11.6777L1.36182 7.24805C0.752441 6.93555 0.447754 6.56445 0.447754 6.13477C0.447754 5.70508 0.752441 5.33398 1.36182 5.02148L10.2212 0.591797C10.8462 0.294922 11.5884 0.146484 12.4478 0.146484C13.3071 0.146484 14.0493 0.294922 14.6743 0.591797L23.5337 5.02148C24.1431 5.33398 24.4478 5.70508 24.4478 6.13477C24.4478 6.56445 24.1431 6.93555 23.5337 7.24805ZM1.36182 17.0449L3.65869 15.8965L5.29932 16.7168L1.94775 18.1465L12.4478 22.6465L22.9478 18.1465L19.5962 16.7168L21.2368 15.8965L23.5337 17.0449C24.1431 17.3418 24.4478 17.709 24.4478 18.1465C24.4478 18.584 24.1431 18.9512 23.5337 19.248L14.6743 23.6777C14.0493 23.9902 13.3071 24.1465 12.4478 24.1465C11.5884 24.1465 10.8462 23.9902 10.2212 23.6777L1.36182 19.248C0.752441 18.9512 0.447754 18.584 0.447754 18.1465C0.447754 17.709 0.752441 17.3418 1.36182 17.0449Z" fill="#00CE2D"/>
<path d="M23.5337 13.127L14.6743 17.5566C14.0493 17.8691 13.3071 18.0254 12.4478 18.0254C11.5884 18.0254 10.8462 17.8691 10.2212 17.5566L1.36182 13.127C0.752441 12.8145 0.447754 12.4434 0.447754 12.0137C0.447754 11.584 0.752441 11.2207 1.36182 10.9238L3.65869 9.77539L10.2212 13.0566C10.8462 13.3691 11.5884 13.5254 12.4478 13.5254C13.3071 13.5254 14.0493 13.3691 14.6743 13.0566L21.2368 9.77539L23.5337 10.9238C24.1431 11.2207 24.4478 11.5879 24.4478 12.0254C24.4478 12.4629 24.1431 12.8301 23.5337 13.127ZM23.5337 7.12695L14.6743 11.5566C14.0493 11.8691 13.3071 12.0254 12.4478 12.0254C11.5884 12.0254 10.8462 11.8691 10.2212 11.5566L1.36182 7.12695C0.752441 6.81445 0.447754 6.44336 0.447754 6.01367C0.447754 5.58398 0.752441 5.21289 1.36182 4.90039L10.2212 0.470703C10.8462 0.173828 11.5884 0.0253906 12.4478 0.0253906C13.3071 0.0253906 14.0493 0.173828 14.6743 0.470703L23.5337 4.90039C24.1431 5.21289 24.4478 5.58398 24.4478 6.01367C24.4478 6.44336 24.1431 6.81445 23.5337 7.12695ZM12.4478 1.52539L1.94775 6.02539L12.4478 10.5254L22.9478 6.02539L12.4478 1.52539ZM1.36182 16.9238L3.65869 15.7754L5.29932 16.5957L1.94775 18.0254L12.4478 22.5254L22.9478 18.0254L19.5962 16.5957L21.2368 15.7754L23.5337 16.9238C24.1431 17.2207 24.4478 17.5879 24.4478 18.0254C24.4478 18.4629 24.1431 18.8301 23.5337 19.127L14.6743 23.5566C14.0493 23.8691 13.3071 24.0254 12.4478 24.0254C11.5884 24.0254 10.8462 23.8691 10.2212 23.5566L1.36182 19.127C0.752441 18.8301 0.447754 18.4629 0.447754 18.0254C0.447754 17.5879 0.752441 17.2207 1.36182 16.9238Z" fill="#00CE2D"/>
</svg>
