<svg width="49" height="49" viewBox="0 0 49 49" fill="none" xmlns="http://www.w3.org/2000/svg">
<path d="M48.1016 7.52383C48.1844 7.10977 48.2672 6.6957 47.9359 6.36445L42.7188 0.733203C40.4 3.05195 37.0875 4.29414 33.6094 4.29414C30.2969 4.29414 27.15 2.96914 24.5828 0.650391C22.0156 2.96914 18.8687 4.29414 15.4734 4.29414C12.0781 4.29414 8.84844 3.05195 6.36406 0.650391L1.14687 6.19883C0.815625 6.61289 0.898437 7.02695 0.98125 7.3582C2.88594 11.416 2.72031 16.0535 0.484375 19.6973C0.567188 27.8957 4.79063 35.5145 11.8297 40.152L24.5 48.2676L37.2531 40.152C44.2922 35.5145 48.4328 27.8957 48.5156 19.6973C46.4453 15.9707 46.2797 11.3332 48.1016 7.52383ZM34.4375 29.2207C35.4313 30.2145 35.3484 31.7051 34.4375 32.6988C33.1125 34.1895 31.4562 33.1957 30.9594 32.6988L24.5 26.2395L18.0406 32.6988C17.0469 33.6926 15.5562 33.6926 14.5625 32.6988C14.0656 32.202 13.2375 30.6285 14.5625 29.2207L21.0219 22.7613L14.5625 16.302C14.0656 15.8051 13.1547 14.3973 14.5625 12.8238C15.4734 11.8301 17.1297 11.9129 18.0406 12.8238L24.5 19.2832L30.9594 12.8238C31.9531 11.9129 33.5266 11.9129 34.4375 12.8238C35.4313 13.8176 35.4313 15.3082 34.4375 16.302L27.9781 22.7613L34.4375 29.2207ZM44.7063 26.3223C43.8781 29.3035 42.2219 32.0363 40.0687 34.3551C39.9031 34.5207 39.4062 34.7691 38.9094 34.3551C38.5781 34.0238 38.5781 33.527 38.9094 33.1957C40.8969 31.1254 42.3875 28.5582 43.2156 25.8254C43.3812 25.4113 43.7953 25.1629 44.2094 25.2457C44.5406 25.4113 44.7891 25.8254 44.7063 26.3223Z" fill="black"/>
</svg>
