<svg width="128" height="128" viewBox="0 0 128 128" fill="none" xmlns="http://www.w3.org/2000/svg">
<path d="M64.0263 0.888672C51.4562 0.888672 39.1684 4.59007 28.7167 11.5248C18.2651 18.4595 10.119 28.3162 5.30861 39.8482C0.498241 51.3802 -0.760371 64.0698 1.69193 76.3121C4.14424 88.5545 10.1973 99.7998 19.0857 108.626C27.9741 117.452 39.2986 123.463 51.6272 125.898C63.9558 128.333 76.7347 127.084 88.3479 122.307C99.9612 117.53 109.887 109.441 116.871 99.0624C123.854 88.6839 127.582 76.482 127.582 63.9998C127.582 47.2617 120.886 31.2091 108.967 19.3735C97.0479 7.53786 80.8823 0.888672 64.0263 0.888672ZM105.536 42.8181L53.341 94.6087L22.5166 63.9998C21.4631 62.9536 20.8712 61.5348 20.8712 60.0553C20.8712 58.5759 21.4631 57.157 22.5166 56.1109C23.5701 55.0648 24.9989 54.477 26.4888 54.477C27.9787 54.477 29.4075 55.0648 30.461 56.1109L53.4205 78.9098L97.671 35.0081C98.1926 34.4901 98.8119 34.0792 99.4935 33.7989C100.175 33.5186 100.906 33.3743 101.643 33.3743C102.381 33.3743 103.111 33.5186 103.793 33.7989C104.475 34.0792 105.094 34.4901 105.615 35.0081C106.137 35.5261 106.551 36.141 106.833 36.8178C107.116 37.4946 107.261 38.22 107.261 38.9526C107.261 39.6851 107.116 40.4105 106.833 41.0873C106.551 41.7641 106.137 42.379 105.615 42.897L105.536 42.8181Z" fill="#053582"/>
</svg>
