<svg width="16" height="16" viewBox="0 0 16 16" fill="none" xmlns="http://www.w3.org/2000/svg">
<path d="M6 3H2L3.8535 1.1465C3.9475 1.0525 4.0745 1 4.207 1H8L6 3ZM15 1.5V12.25C15 12.4075 14.926 12.5555 14.8 12.65L13.5015 13.624L13.5 3.75C13.5 3.3355 13.1645 3 12.75 3H9L11 1H14.5C14.776 1 15 1.224 15 1.5Z" fill="black"/>
<path d="M12 4H1.5C1.224 4 1 4.224 1 4.5V14.5C1 14.776 1.224 15 1.5 15H12C12.276 15 12.5 14.776 12.5 14.5V4.5C12.5 4.224 12.276 4 12 4ZM9.5 8.5C9.5 9.707 8.6395 10.717 7.5 10.9495V12H8C8.276 12 8.5 12.224 8.5 12.5C8.5 12.776 8.276 13 8 13H6C5.724 13 5.5 12.776 5.5 12.5C5.5 12.224 5.724 12 6 12H6.5V10.9495C5.3605 10.717 4.5 9.707 4.5 8.5V6.5C4.5 6.224 4.724 6 5 6H6.793L5.6465 7.1465C5.5035 7.2895 5.4605 7.5045 5.538 7.6915C5.6155 7.878 5.798 8 6 8H6.793L6.1465 8.6465C5.951 8.842 5.951 9.158 6.1465 9.3535C6.342 9.549 6.658 9.549 6.8535 9.3535L8.3535 7.8535C8.4965 7.7105 8.5395 7.4955 8.462 7.3085C8.3845 7.122 8.202 7 8 7H7.207L8.207 6H9C9.276 6 9.5 6.224 9.5 6.5V8.5Z" fill="black"/>
</svg>
