<svg width="82" height="101" viewBox="0 0 82 101" fill="none" xmlns="http://www.w3.org/2000/svg">
<path d="M20.2917 98.4166C27.1884 100.315 34.4297 100.315 43.4442 98.3401C42.2452 97.4143 41.1703 96.3321 40.2469 95.1213C37.901 92.0963 38.2211 87.926 40.8839 84.8385C39.4461 82.5667 38.9852 79.7963 39.8687 77.2073C40.0647 76.6495 40.3281 76.1104 40.6389 75.5995C41.2221 74.5539 41.9672 73.6115 42.8454 72.8088C42.6709 72.7198 42.4718 72.6432 42.3064 72.5541C42.0997 72.437 41.9206 72.2838 41.7246 72.1604C36.2228 79.3354 28.0428 84.2588 18.5414 85.426L18.1831 85.4541C16.7101 85.4541 15.531 84.287 15.4361 82.7479C15.3826 82.021 15.6066 81.3012 16.0612 80.7389C16.5158 80.1766 17.1658 79.8154 17.8753 79.7307C26.3876 78.687 33.5033 74.2541 38.0526 67.7135C37.362 65.9245 37.2717 63.951 37.9347 62.0651C38.29 61.037 38.8963 60.0901 39.6512 59.2463C39.7554 59.101 39.8442 58.951 39.9621 58.8073C37.3605 57.5698 36.0911 55.5245 35.4954 53.6948C34.1372 49.5307 35.8844 45.5745 40.2331 42.6948C40.6374 42.3416 41.0508 41.9901 41.4734 41.6667C38.4952 41.8276 35.7067 41.2338 33.4206 39.6432L31.3963 38.2416L33.9014 36.3292C34.2367 36.0526 34.5522 35.7917 34.9702 35.5901C39.2501 33.5182 41.573 30.0792 42.0767 25.0776C42.9097 16.7542 41.4887 10.4229 37.6101 5.1479C36.4739 3.60103 34.6257 2.10884 32.5524 1.05884C31.9246 0.743213 31.3228 0.582275 30.721 0.582275C29.398 0.582275 27.9663 1.31509 26.0813 2.94634C24.6113 4.20103 24.6006 5.56196 25.1319 8.14478C25.3004 8.95571 25.5791 9.82446 26.0002 10.8807C28.4946 17.0198 27.4487 23.1463 22.9744 28.6026C19.3729 33.0088 16.3318 36.0104 13.1147 38.3385C2.56896 45.976 -1.23313 55.851 1.50475 68.5166C2.16931 71.6041 2.73434 74.7057 3.29631 77.8041L3.77559 80.4479C5.53193 89.9588 10.9372 95.8354 20.2962 98.4182" fill="#00CE2D"/>
<path d="M68.5306 36.8088C68.2304 36.8088 67.9288 36.8104 67.6179 36.8417C65.2261 37.0432 62.8435 37.6104 60.9095 38.451C55.9269 40.612 50.0989 43.2338 44.6094 46.2323C41.2529 48.0713 39.8824 50.012 40.5317 51.9932C40.89 53.0854 41.8348 54.5276 45.9293 54.5276C46.4683 54.5276 47.0043 54.5073 47.5371 54.4667C53.8214 53.9838 61.8696 54.301 65.8585 53.0901C69.8505 51.8838 70.3834 50.9432 70.8535 50.751C74.5361 49.1729 76.6937 45.5073 75.9648 42.312C75.2206 39.0401 72.3725 36.8088 68.5306 36.8088Z" fill="#00CE2D"/>
<path d="M75.7533 54.7932C75.5386 54.7542 75.3207 54.7358 75.1025 54.7385C74.686 54.7385 74.3844 54.8073 74.2404 54.8682C67.0068 58.0885 58.8514 59.8354 48.5797 60.3714C46.1206 60.4979 43.4501 62.0354 42.7533 63.7354C42.1071 65.3135 42.8605 66.9042 44.6873 67.8167C45.7638 68.362 47.1006 68.8042 48.5522 69.0932C50.2243 69.4323 52.8014 69.6104 56.0032 69.6104C62.9812 69.6104 71.0707 68.762 74.8269 67.6354C79.0057 66.3714 81.4358 63.8229 81.4878 60.6448C81.5292 57.7401 79.2231 55.3885 75.7533 54.7932Z" fill="#00CE2D"/>
<path d="M77.1317 74.9448C68.376 76.4573 59.6173 76.6432 51.151 75.476C50.876 75.4375 50.5986 75.4192 50.321 75.4213C47.966 75.4213 45.5665 76.7479 44.7396 78.501C43.8913 80.3182 44.8116 82.4667 46.8788 83.4823C52.4954 86.2167 58.8455 86.4245 65.5692 86.6432L66.7789 86.6776C68.402 86.7401 70.0987 86.6635 71.3359 86.6088L72.3481 86.5745C76.2589 85.5948 79.2463 83.2948 80.1682 80.5401C80.7715 78.7495 80.4453 76.9963 79.2387 75.4635C78.5894 74.6479 78.1408 74.7573 77.1317 74.9448Z" fill="#00CE2D"/>
<path d="M45.1866 88.4791C44.3674 89.7073 44.2862 91.0979 45.0411 92.1041C46.0701 93.5135 47.1144 94.5354 48.1649 95.1713C52.6009 97.8729 57.8883 99.4588 64.3441 100.032C67.5781 100.335 70.3772 99.3619 72.4689 97.1932C74.0843 95.5088 74.6846 93.8729 74.3263 92.0291C62.5556 93.1135 53.4232 91.9744 45.1866 88.4791Z" fill="#00CE2D"/>
</svg>
