<svg width="17" height="20" viewBox="0 0 17 20" fill="none" xmlns="http://www.w3.org/2000/svg">
<path d="M3.21144 6.96457C4.62183 6.96457 5.76517 8.10791 5.76517 9.5183C5.76517 10.9287 4.62183 12.072 3.21144 12.072C1.80106 12.072 0.657715 10.9287 0.657715 9.5183C0.657715 8.10791 1.80106 6.96457 3.21144 6.96457Z" fill="white"/>
<path d="M15.9799 11.375H6.92574C6.6693 11.375 6.46143 11.1671 6.46143 10.9107C6.46143 10.6542 6.6693 10.4464 6.92574 10.4464H15.9799C16.2364 10.4464 16.4443 10.6542 16.4443 10.9107C16.4443 11.1671 16.2364 11.375 15.9799 11.375Z" fill="white"/>
<path d="M6.92574 7.66022H11.8011C12.0575 7.66022 12.2654 7.8681 12.2654 8.12455C12.2654 8.38099 12.0575 8.58887 11.8011 8.58887H6.92574C6.6693 8.58887 6.46143 8.38099 6.46143 8.12455C6.46143 7.8681 6.6693 7.66022 6.92574 7.66022Z" fill="white"/>
<path d="M3.21144 13.9294C4.62183 13.9294 5.76517 15.0728 5.76517 16.4831C5.76517 17.8935 4.62183 19.0369 3.21144 19.0369C1.80106 19.0369 0.657715 17.8935 0.657715 16.4831C0.657715 15.0728 1.80106 13.9294 3.21144 13.9294Z" fill="white"/>
<path d="M6.92574 17.411H15.9799C16.2364 17.411 16.4443 17.6188 16.4443 17.8753C16.4443 18.1317 16.2364 18.3396 15.9799 18.3396H6.92574C6.6693 18.3396 6.46143 18.1317 6.46143 17.8753C6.46143 17.6188 6.6693 17.411 6.92574 17.411Z" fill="white"/>
<path d="M6.92574 14.627H11.8011C12.0575 14.627 12.2654 14.8349 12.2654 15.0913C12.2654 15.3478 12.0575 15.5557 11.8011 15.5557H6.92574C6.6693 15.5557 6.46143 15.3478 6.46143 15.0913C6.46143 14.8349 6.6693 14.627 6.92574 14.627Z" fill="white"/>
<path d="M3.21144 -3.48091e-05C4.62183 -3.48091e-05 5.76517 1.14331 5.76517 2.55369C5.76517 3.96408 4.62183 5.10742 3.21144 5.10742C1.80106 5.10742 0.657715 3.96408 0.657715 2.55369C0.657715 1.14331 1.80106 -3.48091e-05 3.21144 -3.48091e-05Z" fill="white"/>
<path d="M15.9802 4.41089H6.92599C6.66954 4.41089 6.46167 4.20301 6.46167 3.94657C6.46167 3.69013 6.66954 3.48225 6.92599 3.48225H15.9802C16.2366 3.48225 16.4445 3.69013 16.4445 3.94657C16.4445 4.20301 16.2366 4.41089 15.9802 4.41089Z" fill="white"/>
<path d="M11.8011 1.62427H6.92574C6.6693 1.62427 6.46143 1.41639 6.46143 1.15995C6.46143 0.903505 6.6693 0.695632 6.92574 0.695632H11.8011C12.0575 0.695632 12.2654 0.903505 12.2654 1.15995C12.2654 1.41639 12.0575 1.62427 11.8011 1.62427Z" fill="white"/>
</svg>
