<svg width="34" height="37" viewBox="0 0 34 37" fill="none" xmlns="http://www.w3.org/2000/svg">
<path d="M26.2083 7.92188H7.79163C6.61802 7.92188 5.66663 8.9367 5.66663 10.1885C5.66663 11.4404 6.61802 12.4552 7.79163 12.4552H26.2083C27.3819 12.4552 28.3333 11.4404 28.3333 10.1885C28.3333 8.9367 27.3819 7.92188 26.2083 7.92188Z" fill="#3A3384"/>
<path opacity="0.3" d="M14.875 30.5883C14.3114 30.5883 13.7709 30.3495 13.3724 29.9244C12.9739 29.4993 12.75 28.9228 12.75 28.3216C12.75 27.7205 12.9739 27.1439 13.3724 26.7188C13.7709 26.2938 14.3114 26.0549 14.875 26.0549H19.125C19.6886 26.0549 20.2291 26.2938 20.6276 26.7188C21.0261 27.1439 21.25 27.7205 21.25 28.3216C21.25 28.9228 21.0261 29.4993 20.6276 29.9244C20.2291 30.3495 19.6886 30.5883 19.125 30.5883H14.875ZM10.625 21.5216C10.0614 21.5216 9.52091 21.2828 9.1224 20.8577C8.72388 20.4326 8.5 19.8561 8.5 19.2549C8.5 18.6538 8.72388 18.0773 9.1224 17.6522C9.52091 17.2271 10.0614 16.9883 10.625 16.9883H23.375C23.9386 16.9883 24.4791 17.2271 24.8776 17.6522C25.2761 18.0773 25.5 18.6538 25.5 19.2549C25.5 19.8561 25.2761 20.4326 24.8776 20.8577C24.4791 21.2828 23.9386 21.5216 23.375 21.5216H10.625Z" fill="#3A3384"/>
</svg>
