<svg width="36" height="37" viewBox="0 0 36 37" fill="none" xmlns="http://www.w3.org/2000/svg">
<path fill-rule="evenodd" clip-rule="evenodd" d="M36 18.4006C36 28.3417 27.9411 36.4006 18 36.4006C8.05888 36.4006 0 28.3417 0 18.4006C0 8.45951 8.05888 0.400635 18 0.400635C27.9411 0.400635 36 8.45951 36 18.4006Z" fill="black"/>
<path d="M21.646 13.3377C22.7548 13.9519 23.6755 14.8356 24.3156 15.9C24.9556 16.9643 25.2923 18.1717 25.2918 19.4007V27.4007H20.9481C20.7329 27.9862 20.3338 28.4932 19.8058 28.8519C19.2778 29.2105 18.6469 29.4031 18.0002 29.4031C17.3534 29.4031 16.7225 29.2105 16.1945 28.8519C15.6666 28.4932 15.2675 27.9862 15.0522 27.4007H10.7085V19.4007C10.708 18.1717 11.0447 16.9643 11.6848 15.9C12.3248 14.8356 13.2455 13.9519 14.3543 13.3377C14.1832 13.0425 14.0519 12.7277 13.9637 12.4007H10.7085V10.4007H13.9647C14.1965 9.54241 14.7185 8.78233 15.4488 8.23973C16.1792 7.69712 17.0766 7.40271 18.0002 7.40271C18.9237 7.40271 19.8211 7.69712 20.5515 8.23973C21.2819 8.78233 21.8039 9.54241 22.0356 10.4007H25.2918V12.4007H22.0356C21.9476 12.7274 21.817 13.0422 21.647 13.3377H21.646ZM18.0002 20.4007C17.7239 20.4007 17.4589 20.506 17.2636 20.6935C17.0682 20.8811 16.9585 21.1354 16.9585 21.4007V26.4007C16.9585 26.6659 17.0682 26.9202 17.2636 27.1078C17.4589 27.2953 17.7239 27.4007 18.0002 27.4007C18.2764 27.4007 18.5414 27.2953 18.7367 27.1078C18.9321 26.9202 19.0418 26.6659 19.0418 26.4007V21.4007C19.0418 21.1354 18.9321 20.8811 18.7367 20.6935C18.5414 20.506 18.2764 20.4007 18.0002 20.4007ZM18.0002 13.4007C18.5527 13.4007 19.0826 13.1899 19.4733 12.8149C19.864 12.4398 20.0835 11.9311 20.0835 11.4007C20.0835 10.8702 19.864 10.3615 19.4733 9.98644C19.0826 9.61137 18.5527 9.40065 18.0002 9.40065C17.4476 9.40065 16.9177 9.61137 16.527 9.98644C16.1363 10.3615 15.9168 10.8702 15.9168 11.4007C15.9168 11.9311 16.1363 12.4398 16.527 12.8149C16.9177 13.1899 17.4476 13.4007 18.0002 13.4007Z" fill="white"/>
</svg>
