<svg width="100" height="100" viewBox="0 0 100 100" fill="none" xmlns="http://www.w3.org/2000/svg">
<g clip-path="url(#clip0_2335_36500)">
<path fill-rule="evenodd" clip-rule="evenodd" d="M96.0151 38.9883H4.0061C2.9021 38.9883 2.0061 39.8853 2.0061 40.9933V97.9943C2.0061 99.1023 2.9021 100 4.0061 100H96.0151C96.2782 100 96.5387 99.9479 96.7817 99.847C97.0247 99.746 97.2454 99.5981 97.4312 99.4118C97.617 99.2256 97.7643 99.0045 97.8647 98.7613C97.965 98.518 98.0165 98.2574 98.0161 97.9943V40.9933C98.0164 40.7302 97.9648 40.4697 97.8644 40.2266C97.764 39.9835 97.6167 39.7625 97.4309 39.5764C97.245 39.3902 97.0244 39.2424 96.7815 39.1415C96.5386 39.0406 96.2781 38.9885 96.0151 38.9883Z" fill="#000103"/>
<path fill-rule="evenodd" clip-rule="evenodd" d="M5 15.9737V97.9777C5 99.0947 5.896 99.9997 7 99.9997H93.001C93.265 99.9983 93.526 99.9449 93.7694 99.8425C94.0127 99.7402 94.2334 99.5909 94.4191 99.4033C94.6047 99.2156 94.7515 98.9932 94.8512 98.7488C94.9509 98.5044 95.0014 98.2427 95 97.9787V1.98975C95.0014 1.72579 94.9509 1.46413 94.8512 1.21971C94.7515 0.975295 94.6047 0.752903 94.4191 0.565235C94.2334 0.377567 94.0127 0.228299 93.7694 0.125954C93.526 0.0236085 93.265 -0.0298094 93.001 -0.03125L21.004 -0.02325L5 15.9737Z" fill="#ECF0F1"/>
<path opacity="0.1" d="M40 72L94.997 39L95 45.98L51.028 72H40Z" fill="black"/>
<path fill-rule="evenodd" clip-rule="evenodd" d="M2 97.991C2 99.101 2.895 100 4 100H96C97.104 100 98 99.101 98 97.991V42L50 71L2 42V97.991Z" fill="#053582"/>
<path fill-rule="evenodd" clip-rule="evenodd" d="M5 15.974L21.001 15.984V0L5 15.974Z" fill="#053582"/>
<path d="M2 42L2.052 96L50 71L2 42Z" fill="#053582"/>
<path d="M98 42L50 71L98 96V42Z" fill="#053582"/>
<path opacity="0.3" fill-rule="evenodd" clip-rule="evenodd" d="M98 97.991V96L50 71L97.328 99.482C97.737 99.115 98 98.586 98 97.991ZM2 97.991V96L50 71L2.672 99.482C2.46116 99.2949 2.29228 99.0654 2.17646 98.8084C2.06064 98.5514 2.0005 98.2729 2 97.991Z" fill="black"/>
</g>
<defs>
<clipPath id="clip0_2335_36500">
<rect width="100" height="100" fill="white"/>
</clipPath>
</defs>
</svg>
