<svg width="72" height="67" viewBox="0 0 72 67" fill="none" xmlns="http://www.w3.org/2000/svg">
<rect width="72" height="67" rx="12" fill="#C4C4C4" fill-opacity="0.21"/>
<g clip-path="url(#clip0_25_216)">
<path d="M1 53.6067H72V53.6422H1V53.6067Z" fill="#EBEBEB"/>
<path d="M52.4522 54.5737H57.1553V54.6092H52.4522V54.5737Z" fill="#EBEBEB"/>
<path d="M41.9117 55.8745H47.6982V55.91H41.9117V55.8745Z" fill="#EBEBEB"/>
<path d="M57.2974 55.4299H64.5508V55.4654H57.2974V55.4299Z" fill="#EBEBEB"/>
<path d="M8.11421 54.8123H21.3401V54.8478H8.11421V54.8123Z" fill="#EBEBEB"/>
<path d="M22.6038 54.8123H23.5027V54.8478H22.6038V54.8123Z" fill="#EBEBEB"/>
<path d="M26.6396 55.4116H32.6362V55.4471H26.6396V55.4116Z" fill="#EBEBEB"/>
<path d="M38.346 47.2736H65.7648C66.2121 47.2721 66.5742 46.91 66.5742 46.4627V7.91969C66.57 7.47523 66.2093 7.11739 65.7648 7.11597H38.346C37.8987 7.11597 37.5352 7.47949 37.5352 7.92679V46.4627C37.5352 46.91 37.8987 47.2736 38.346 47.2736ZM65.7648 7.14437C66.1922 7.14579 66.5387 7.49227 66.5387 7.91969V46.4627C66.5387 46.8902 66.1922 47.2366 65.7648 47.2381H38.346C37.9186 47.2366 37.5721 46.8902 37.5707 46.4627V7.91969C37.5721 7.49227 37.9186 7.14579 38.346 7.14437H65.7648Z" fill="#EBEBEB"/>
<path d="M7.63007 47.2736H35.0503C35.4976 47.2721 35.8597 46.91 35.8611 46.4627V7.91969C35.8568 7.47523 35.4947 7.11739 35.0503 7.11597H7.63007C7.18561 7.11739 6.82635 7.47523 6.82209 7.91969V46.4627C6.82209 46.91 7.18277 47.2721 7.63007 47.2736ZM35.0503 7.14437C35.4777 7.14579 35.8242 7.49227 35.8256 7.91969V46.4627C35.8242 46.8902 35.4777 47.2366 35.0503 47.2381H7.63007C7.20265 47.2366 6.85617 46.8902 6.85475 46.4627V7.91969C6.85617 7.49227 7.20265 7.14579 7.63007 7.14437H35.0503Z" fill="#EBEBEB"/>
<path d="M61.9648 23.6021H49.6463C49.6463 23.6021 50.3095 22.06 52.5233 22.54C52.5233 22.54 52.989 20.7863 54.6802 21.0291C54.6802 21.0291 56.0789 19.5139 58.1195 20.1018C60.1586 20.6897 59.9839 22.5414 59.9839 22.5414C59.9839 22.5414 61.4977 22.1452 61.9648 23.6021Z" fill="#FAFAFA"/>
<path d="M28.9896 14.2074H41.3081C41.3081 14.2074 40.645 12.6652 38.4312 13.1452C38.4312 13.1452 37.9654 11.3915 36.2742 11.6343C36.2742 11.6343 34.8755 10.1192 32.835 10.7071C30.7959 11.2949 30.9705 13.1466 30.9705 13.1466C30.9705 13.1466 29.4554 12.7504 28.9896 14.2074Z" fill="#FAFAFA"/>
<path d="M19.9045 13.8055H10.4786C10.4786 13.8055 10.8393 12.5076 12.2039 12.9322C12.2039 12.9322 11.9227 11.1913 12.9252 10.9911C13.9278 10.7909 14.2487 12.1143 14.2487 12.1143C14.2487 12.1143 14.97 11.2325 16.1344 11.5534C17.2974 11.8743 17.4976 12.9322 17.4976 12.9322C17.4976 12.9322 19.1832 11.968 19.9045 13.8055Z" fill="#FAFAFA"/>
<path d="M54.0086 30.854H65.4736V53.5697H54.0086V30.854Z" fill="#E6E6E6"/>
<path d="M56.0931 30.854H65.4736V53.5697H56.0931V30.854Z" fill="#F0F0F0"/>
<path d="M53.8736 30.854H65.7207V31.2246H53.8736V30.854Z" fill="#E0E0E0"/>
<path d="M53.8736 30.1128H65.7207V30.4834H53.8736V30.1128Z" fill="#E0E0E0"/>
<path d="M54.1222 30.4834H65.4736V30.854H54.1222V30.4834Z" fill="#F0F0F0"/>
<path d="M62.821 32.1902H64.5833V33.9794H62.821V32.1902Z" fill="#E6E6E6"/>
<path d="M62.8224 32.1902H64.4285V33.9794H62.8224V32.1902Z" fill="#F5F5F5"/>
<path d="M60.1528 32.1902H61.915V33.9794H60.1528V32.1902Z" fill="#E6E6E6"/>
<path d="M60.1542 32.1902H61.7603V33.9794H60.1542V32.1902Z" fill="#F5F5F5"/>
<path d="M57.4846 32.1902H59.2468V33.9794H57.4846V32.1902Z" fill="#E6E6E6"/>
<path d="M57.486 32.1902H59.092V33.9794H57.486V32.1902Z" fill="#F5F5F5"/>
<path d="M62.821 34.8245H64.5833V36.6137H62.821V34.8245Z" fill="#E6E6E6"/>
<path d="M62.8224 34.8245H64.4285V36.6137H62.8224V34.8245Z" fill="#F5F5F5"/>
<path d="M60.1528 34.8245H61.915V36.6137H60.1528V34.8245Z" fill="#E6E6E6"/>
<path d="M60.1542 34.8245H61.7603V36.6137H60.1542V34.8245Z" fill="#F5F5F5"/>
<path d="M57.4846 34.8245H59.2468V36.6137H57.4846V34.8245Z" fill="#E6E6E6"/>
<path d="M57.486 34.8245H59.092V36.6137H57.486V34.8245Z" fill="#F5F5F5"/>
<path d="M62.821 39.6482H64.5833V41.4374H62.821V39.6482Z" fill="#E6E6E6"/>
<path d="M62.8224 39.6482H64.4285V41.4374H62.8224V39.6482Z" fill="#F5F5F5"/>
<path d="M60.1528 39.6482H61.915V41.4374H60.1528V39.6482Z" fill="#E6E6E6"/>
<path d="M60.1542 39.6482H61.7603V41.4374H60.1542V39.6482Z" fill="#F5F5F5"/>
<path d="M57.4846 39.6482H59.2468V41.4374H57.4846V39.6482Z" fill="#E6E6E6"/>
<path d="M57.486 39.6482H59.092V41.4374H57.486V39.6482Z" fill="#F5F5F5"/>
<path d="M62.821 42.2822H64.5833V44.0714H62.821V42.2822Z" fill="#E6E6E6"/>
<path d="M62.8224 42.2822H64.4285V44.0714H62.8224V42.2822Z" fill="#F5F5F5"/>
<path d="M60.1528 42.2822H61.915V44.0714H60.1528V42.2822Z" fill="#E6E6E6"/>
<path d="M60.1542 42.2822H61.7603V44.0714H60.1542V42.2822Z" fill="#F5F5F5"/>
<path d="M57.4846 42.2822H59.2468V44.0714H57.4846V42.2822Z" fill="#E6E6E6"/>
<path d="M57.486 42.2822H59.092V44.0714H57.486V42.2822Z" fill="#F5F5F5"/>
<path d="M62.821 47.6428H64.5833V49.432H62.821V47.6428Z" fill="#E6E6E6"/>
<path d="M62.8224 47.6428H64.4285V49.432H62.8224V47.6428Z" fill="#F5F5F5"/>
<path d="M60.1528 47.6428H61.915V49.432H60.1528V47.6428Z" fill="#E6E6E6"/>
<path d="M60.1542 47.6428H61.7603V49.432H60.1542V47.6428Z" fill="#F5F5F5"/>
<path d="M57.4846 47.6428H59.2468V49.432H57.4846V47.6428Z" fill="#E6E6E6"/>
<path d="M57.486 47.6428H59.092V49.432H57.486V47.6428Z" fill="#F5F5F5"/>
<path d="M62.821 50.2769H64.5833V52.066H62.821V50.2769Z" fill="#E6E6E6"/>
<path d="M62.8224 50.2769H64.4285V52.066H62.8224V50.2769Z" fill="#F5F5F5"/>
<path d="M60.1528 50.2769H61.915V52.066H60.1528V50.2769Z" fill="#E6E6E6"/>
<path d="M60.1542 50.2769H61.7603V52.066H60.1542V50.2769Z" fill="#F5F5F5"/>
<path d="M57.4846 50.2769H59.2468V52.066H57.4846V50.2769Z" fill="#E6E6E6"/>
<path d="M57.486 50.2769H59.092V52.066H57.486V50.2769Z" fill="#F5F5F5"/>
<path d="M54.0086 37.8716H65.4736V38.0377H54.0086V37.8716Z" fill="#E0E0E0"/>
<path d="M54.0086 46.1162H65.4736V46.2824H54.0086V46.1162Z" fill="#E0E0E0"/>
<path d="M8.92363 26.1665H20.251V53.7301H8.92363V26.1665Z" fill="#E0E0E0"/>
<path d="M12.1499 26.1665H20.251V53.7301H12.1499V26.1665Z" fill="#F0F0F0"/>
<path d="M16.4013 28.4316H19.416V29.8957H16.4013V28.4316Z" fill="#E6E6E6"/>
<path d="M16.4014 28.4316H19.2158V29.8957H16.4014V28.4316Z" fill="#F5F5F5"/>
<path d="M12.9138 28.4316H15.9285V29.8957H12.9138V28.4316Z" fill="#E6E6E6"/>
<path d="M12.9138 28.4316H15.7283V29.8957H12.9138V28.4316Z" fill="#F5F5F5"/>
<path d="M16.4013 31.1863H19.416V32.6503H16.4013V31.1863Z" fill="#E6E6E6"/>
<path d="M16.4014 31.1863H19.2158V32.6503H16.4014V31.1863Z" fill="#F5F5F5"/>
<path d="M12.9138 31.1863H15.9285V32.6503H12.9138V31.1863Z" fill="#E6E6E6"/>
<path d="M12.9138 31.1863H15.7283V32.6503H12.9138V31.1863Z" fill="#F5F5F5"/>
<path d="M16.4013 34.7065H19.416V36.1706H16.4013V34.7065Z" fill="#E6E6E6"/>
<path d="M16.4014 34.7065H19.2158V36.1706H16.4014V34.7065Z" fill="#F5F5F5"/>
<path d="M12.9138 34.7065H15.9285V36.1706H12.9138V34.7065Z" fill="#E6E6E6"/>
<path d="M12.9138 34.7065H15.7283V36.1706H12.9138V34.7065Z" fill="#F5F5F5"/>
<path d="M16.4013 36.73H19.416V38.194H16.4013V36.73Z" fill="#E6E6E6"/>
<path d="M16.4014 36.73H19.2158V38.194H16.4014V36.73Z" fill="#F5F5F5"/>
<path d="M12.9138 36.73H15.9285V38.194H12.9138V36.73Z" fill="#E6E6E6"/>
<path d="M12.9138 36.73H15.7283V38.194H12.9138V36.73Z" fill="#F5F5F5"/>
<path d="M16.4013 40.0542H19.416V41.5182H16.4013V40.0542Z" fill="#E6E6E6"/>
<path d="M16.4014 40.0542H19.2158V41.5182H16.4014V40.0542Z" fill="#F5F5F5"/>
<path d="M12.9138 40.0542H15.9285V41.5182H12.9138V40.0542Z" fill="#E6E6E6"/>
<path d="M12.9138 40.0542H15.7283V41.5182H12.9138V40.0542Z" fill="#F5F5F5"/>
<path d="M16.4013 42.0764H19.416V43.5404H16.4013V42.0764Z" fill="#E6E6E6"/>
<path d="M16.4014 42.0764H19.2158V43.5404H16.4014V42.0764Z" fill="#F5F5F5"/>
<path d="M12.9138 42.0764H15.9285V43.5404H12.9138V42.0764Z" fill="#E6E6E6"/>
<path d="M12.9138 42.0764H15.7283V43.5404H12.9138V42.0764Z" fill="#F5F5F5"/>
<path d="M16.4013 45.6943H19.416V47.1584H16.4013V45.6943Z" fill="#E6E6E6"/>
<path d="M16.4014 45.6943H19.2158V47.1584H16.4014V45.6943Z" fill="#F5F5F5"/>
<path d="M12.9138 45.6943H15.9285V47.1584H12.9138V45.6943Z" fill="#E6E6E6"/>
<path d="M12.9138 45.6943H15.7283V47.1584H12.9138V45.6943Z" fill="#F5F5F5"/>
<path d="M16.4013 48.3655H19.416V49.8295H16.4013V48.3655Z" fill="#E6E6E6"/>
<path d="M16.4014 48.3655H19.2158V49.8295H16.4014V48.3655Z" fill="#F5F5F5"/>
<path d="M12.9138 48.3655H15.9285V49.8295H12.9138V48.3655Z" fill="#E6E6E6"/>
<path d="M12.9138 48.3655H15.7283V49.8295H12.9138V48.3655Z" fill="#F5F5F5"/>
<path opacity="0.05" d="M8.92363 33.552H20.251V33.8034H8.92363V33.552Z" fill="black"/>
<path opacity="0.05" d="M8.92363 38.9978H20.251V39.2491H8.92363V38.9978Z" fill="black"/>
<path opacity="0.05" d="M8.92363 44.4917H20.251V44.743H8.92363V44.4917Z" fill="black"/>
<path d="M8.92365 25.3516H20.7849V26.232H8.92365V25.3516Z" fill="#E0E0E0"/>
<path opacity="0.05" d="M8.92374 25.3516H11.6345V26.232H8.92374V25.3516Z" fill="black"/>
<path d="M36.3834 19.9783H49.189V53.2602H36.3834V19.9783Z" fill="#E6E6E6"/>
<path d="M41.122 19.9783H53.929V53.2602H41.122V19.9783Z" fill="#F0F0F0"/>
<path d="M42.2394 22.2375H52.8113V23.933H42.2394V22.2375Z" fill="#E6E6E6"/>
<path d="M42.2393 22.2375H52.4009V23.933H42.2393V22.2375Z" fill="#F5F5F5"/>
<path d="M42.2394 25.0918H52.8113V26.7873H42.2394V25.0918Z" fill="#E6E6E6"/>
<path d="M42.2393 25.0918H52.4009V26.7873H42.2393V25.0918Z" fill="#F5F5F5"/>
<path d="M42.2394 28.0566H52.8113V29.7521H42.2394V28.0566Z" fill="#E6E6E6"/>
<path d="M42.2393 28.0566H52.4009V29.7521H42.2393V28.0566Z" fill="#F5F5F5"/>
<path d="M42.2394 31.0229H52.8113V32.7184H42.2394V31.0229Z" fill="#E6E6E6"/>
<path d="M42.2393 31.0229H52.4009V32.7184H42.2393V31.0229Z" fill="#F5F5F5"/>
<path d="M42.2394 33.988H52.8113V35.6835H42.2394V33.988Z" fill="#E6E6E6"/>
<path d="M42.2393 33.988H52.4009V35.6835H42.2393V33.988Z" fill="#F5F5F5"/>
<path d="M42.2394 36.9543H52.8113V38.6498H42.2394V36.9543Z" fill="#E6E6E6"/>
<path d="M42.2393 36.9543H52.4009V38.6498H42.2393V36.9543Z" fill="#F5F5F5"/>
<path d="M42.2394 40.2231H52.8113V41.9186H42.2394V40.2231Z" fill="#E6E6E6"/>
<path d="M42.2393 40.2231H52.4009V41.9186H42.2393V40.2231Z" fill="#F5F5F5"/>
<path d="M42.2394 43.4907H52.8113V45.1862H42.2394V43.4907Z" fill="#E6E6E6"/>
<path d="M42.2393 43.4907H52.4009V45.1862H42.2393V43.4907Z" fill="#F5F5F5"/>
<path d="M42.2394 46.7595H52.8113V48.455H42.2394V46.7595Z" fill="#E6E6E6"/>
<path d="M42.2393 46.7595H52.4009V48.455H42.2393V46.7595Z" fill="#F5F5F5"/>
<path d="M42.2394 50.0283H52.8113V51.7238H42.2394V50.0283Z" fill="#E6E6E6"/>
<path d="M42.2393 50.0283H52.4009V51.7238H42.2393V50.0283Z" fill="#F5F5F5"/>
<path d="M36.0497 19.6433H54.291V20.4556H36.0497V19.6433Z" fill="#F5F5F5"/>
<path d="M36.0497 18.1777H54.291V18.99H36.0497V18.1777Z" fill="#F5F5F5"/>
<path d="M36.6561 18.8308H53.929V19.6431H36.6561V18.8308Z" fill="#F0F0F0"/>
<path d="M36.382 22.2375H39.9504V23.933H36.382V22.2375Z" fill="#E0E0E0"/>
<path d="M36.382 25.0278H39.9504V26.7233H36.382V25.0278Z" fill="#E0E0E0"/>
<path d="M36.382 27.8181H39.9504V29.5136H36.382V27.8181Z" fill="#E0E0E0"/>
<path d="M36.382 31.0217H39.9504V32.7172H36.382V31.0217Z" fill="#E0E0E0"/>
<path d="M36.382 33.988H39.9504V35.6835H36.382V33.988Z" fill="#E0E0E0"/>
<path d="M36.382 36.9543H39.9504V38.6498H36.382V36.9543Z" fill="#E0E0E0"/>
<path d="M36.382 40.2219H39.9504V41.9174H36.382V40.2219Z" fill="#E0E0E0"/>
<path d="M36.382 43.4907H39.9504V45.1862H36.382V43.4907Z" fill="#E0E0E0"/>
<path d="M36.382 46.7595H39.9504V48.455H36.382V46.7595Z" fill="#E0E0E0"/>
<path d="M36.382 50.0283H39.9504V51.7238H36.382V50.0283Z" fill="#E0E0E0"/>
<path d="M19.9214 31.6096H21.3301V33.8135H19.9214V31.6096Z" fill="#E0E0E0"/>
<path d="M19.9214 35.2163H21.3301V37.4202H19.9214V35.2163Z" fill="#E0E0E0"/>
<path d="M19.9214 38.7224H21.3301V40.9262H19.9214V38.7224Z" fill="#E0E0E0"/>
<path d="M19.9214 42.4285H21.3301V44.6323H19.9214V42.4285Z" fill="#E0E0E0"/>
<path d="M19.9214 46.0352H21.3301V48.239H19.9214V46.0352Z" fill="#E0E0E0"/>
<path d="M19.9215 29.3943H34.7449V51.9382H19.9215V29.3943Z" fill="#E6E6E6"/>
<path d="M22.4247 29.3943H34.7432V51.9382H22.4247V29.3943Z" fill="#F0F0F0"/>
<path d="M23.6191 31.6108H33.6357V33.8147H23.6191V31.6108Z" fill="#EBEBEB"/>
<path d="M23.6191 35.2163H33.6357V37.4202H23.6191V35.2163Z" fill="#EBEBEB"/>
<path d="M23.6191 38.823H33.6357V41.0268H23.6191V38.823Z" fill="#EBEBEB"/>
<path d="M23.6191 42.4285H33.6357V44.6323H23.6191V42.4285Z" fill="#EBEBEB"/>
<path d="M23.6191 46.0352H33.6357V48.239H23.6191V46.0352Z" fill="#EBEBEB"/>
<path d="M23.6191 31.6108H33.2666V33.8147H23.6191V31.6108Z" fill="#F5F5F5"/>
<path d="M23.6191 35.2163H33.2666V37.4202H23.6191V35.2163Z" fill="#F5F5F5"/>
<path d="M23.6191 38.823H33.2666V41.0268H23.6191V38.823Z" fill="#F5F5F5"/>
<path d="M23.6191 42.4285H33.2666V44.6323H23.6191V42.4285Z" fill="#F5F5F5"/>
<path d="M23.6191 46.0352H33.2666V48.239H23.6191V46.0352Z" fill="#F5F5F5"/>
<path d="M18.358 24.4262L34.7432 24.6965L34.548 36.5254L18.1628 36.255L18.358 24.4262Z" fill="#407BFF"/>
<path opacity="0.3" d="M24.8529 24.5321L34.7593 24.6956L34.5641 36.5244L24.6577 36.3609L24.8529 24.5321Z" fill="white"/>
<path opacity="0.3" d="M23.4561 25.4915L26.3086 25.5386L26.2955 26.3337L23.443 26.2866L23.4561 25.4915Z" fill="white"/>
<path opacity="0.3" d="M23.2762 34.5274L26.1287 34.5745L26.1155 35.3696L23.263 35.3225L23.2762 34.5274Z" fill="white"/>
<path d="M21.3742 31.9929C20.4495 31.9929 19.7 31.1448 19.7 30.0986C19.7 29.0524 20.4495 28.2043 21.3742 28.2043C22.2988 28.2043 23.0483 29.0524 23.0483 30.0986C23.0483 31.1448 22.2988 31.9929 21.3742 31.9929Z" stroke="white" stroke-miterlimit="10"/>
<path d="M21.3047 28.4927V28.8108" stroke="white" stroke-miterlimit="10" stroke-linecap="round" stroke-linejoin="round"/>
<path d="M21.2322 31.4065V31.7246" stroke="white" stroke-miterlimit="10" stroke-linecap="round" stroke-linejoin="round"/>
<path d="M22.7856 30.0361H22.4661" stroke="white" stroke-miterlimit="10" stroke-linecap="round" stroke-linejoin="round"/>
<path d="M20.2212 30.0376H19.9017" stroke="white" stroke-miterlimit="10" stroke-linecap="round" stroke-linejoin="round"/>
<path d="M21.3062 30.0362L21.3047 29.0564" stroke="white" stroke-width="0.5" stroke-miterlimit="10" stroke-linecap="round" stroke-linejoin="round"/>
<path d="M21.2437 30.1001L20.5507 30.7931" stroke="white" stroke-width="0.5" stroke-miterlimit="10" stroke-linecap="round" stroke-linejoin="round"/>
<path d="M21.1514 30.0376C21.1514 30.1228 21.221 30.1924 21.3062 30.1924C21.3914 30.1924 21.4609 30.1228 21.4609 30.0376C21.4609 29.9524 21.3914 29.8828 21.3062 29.8828C21.221 29.8828 21.1514 29.951 21.1514 30.0376Z" fill="white"/>
<path opacity="0.3" d="M21.3742 32.4942C20.15 32.4942 19.1576 31.4217 19.1576 30.0987C19.1576 28.7756 20.15 27.7031 21.3742 27.7031C22.5984 27.7031 23.5908 28.7756 23.5908 30.0987C23.5908 31.4217 22.5984 32.4942 21.3742 32.4942Z" fill="white"/>
<path d="M39.783 50.8731C39.5373 51.0634 34.5772 50.5294 35.8595 41.7283C35.8595 41.7283 33.5066 42.3261 33.2538 42.2863C33.2538 42.2863 29.8004 47.5787 32.3152 50.2014C34.8286 52.8227 38.5745 52.9775 38.5745 52.9775L39.783 50.8731Z" fill="#407BFF"/>
<path opacity="0.3" d="M39.783 50.8731C39.5373 51.0634 34.5772 50.5294 35.8595 41.7283C35.8595 41.7283 33.5066 42.3261 33.2538 42.2863C33.2538 42.2863 29.8004 47.5787 32.3152 50.2014C34.8286 52.8227 38.5745 52.9775 38.5745 52.9775L39.783 50.8731Z" fill="black"/>
<path d="M34.2861 43.0902C34.2733 43.093 35.672 43.1171 36.1406 42.5335C36.6092 41.9499 36.9202 40.9133 36.0724 40.1976C35.2247 39.4805 30.2192 36.4204 27.862 36.179C25.5048 35.9376 22.9843 37.4613 22.9843 37.4613L26.0685 39.7418L32.7113 41.3492L34.2861 43.0902Z" fill="#263238"/>
<path d="M38.8088 49.4872L38.6796 50.7596L37.1517 50.6303L37.3817 49.3225L38.8088 49.4872Z" fill="#FFC3BD"/>
<path d="M39.1057 50.6672L36.8891 50.636L36.7315 51.7549C36.7315 51.7549 38.8075 51.7848 39.6609 51.6697C40.5143 51.5547 40.3823 51.1117 40.3823 51.1117C40.3823 51.1117 39.3812 51.1358 39.1057 50.6672Z" fill="#263238"/>
<path d="M19.761 53.8842C19.4301 50.6314 21.394 47.7674 24.1475 47.4873C26.901 47.2072 29.4013 49.6171 29.7322 52.87C30.0631 56.1228 28.0992 58.9868 25.3457 59.2669C22.5922 59.547 20.0918 57.1371 19.761 53.8842Z" fill="#263238"/>
<path d="M28.2299 35.273C28.2299 35.273 27.9998 40.5512 31.0713 40.7017C34.1427 40.8522 37.44 40.5157 37.44 40.5157L36.4715 49.9942L39.3513 50.1703C39.3513 50.1703 41.4174 42.1245 41.7426 40.1025C42.0678 38.0804 41.7852 36.6504 39.6509 35.7544C37.5152 34.8584 28.2299 35.273 28.2299 35.273Z" fill="#407BFF"/>
<path d="M45.4104 52.0191L41.5864 40.9119L36.4687 35.2688C36.4687 35.2688 40.9303 35.2873 43.0745 36.5184C45.2187 37.7495 45.3096 39.2334 45.6973 40.9942C46.0835 42.7565 47.6682 51.0961 47.6682 51.0961L45.4104 52.0191Z" fill="#407BFF"/>
<path opacity="0.7" d="M28.2298 35.273C28.2298 35.273 32.9826 35.0615 36.4687 35.2688C36.4687 35.2688 40.9303 35.2872 43.0745 36.5184C45.2187 37.7495 45.3096 39.2334 45.6973 40.9942C46.0835 42.7564 47.6682 51.0961 47.6682 51.0961L45.4104 52.0191L41.5864 40.9119C40.9431 43.9904 39.3513 50.1717 39.3513 50.1717L36.4715 49.9956L37.44 40.5171C37.44 40.5171 34.1427 40.8522 31.0712 40.7031C27.9998 40.5512 28.2298 35.273 28.2298 35.273Z" fill="black"/>
<path d="M36.0712 26.7134L37.8363 26.9278C37.8363 26.9278 38.1444 30.1725 38.4284 30.8016C38.4284 30.8016 43.8571 31.5485 46.0808 31.4832L47.2097 32.25L47.248 33.5833L46.1419 33.616L45.7854 32.7711C45.7854 32.7711 45.0385 32.7399 44.8667 32.3181C44.8667 32.3181 39.0987 33.7111 36.9744 32.1222C36.9744 32.1222 35.6935 30.2407 36.0712 26.7134Z" fill="#FFC3BD"/>
<path d="M31.0159 18.0229C31.0159 18.0229 30.4622 18.7301 30.6737 19.3492C30.8853 19.9669 31.4533 20.0635 31.4533 20.0635C31.4533 20.0635 31.557 21.0475 32.1377 21.0759C32.7185 21.1043 32.5211 18.909 32.5211 18.909L31.0159 18.0229Z" fill="#263238"/>
<path d="M35.4874 35.2972L35.8765 28.954L38.282 27.3551C38.282 27.3551 37.501 24.5762 35.9901 24.1104C34.4806 23.6446 31.2004 22.5626 29.211 23.0979C27.2202 23.6333 27.4488 25.9834 27.7853 27.7243L28.1687 27.8166C28.1687 27.8166 28.2284 34.6823 28.2298 35.2716L35.4874 35.2972Z" fill="#263238"/>
<path d="M31.1593 23.4914C31.9488 24.2539 33.5562 24.7083 34.0049 24.3306C34.4551 23.9529 33.8885 23.6035 33.471 23.1747C33.2438 22.939 33.2523 22.4974 33.3049 22.1452C33.3503 21.8527 33.427 21.6212 33.427 21.6212C34.9024 21.5389 35.5158 20.8502 35.5755 19.6389C35.6379 18.4276 35.077 17.0034 35.077 17.0034L34.0333 16.113C34.0333 16.113 32.619 16.3275 31.4717 17.1085C30.7972 17.5685 30.996 18.4745 31.2771 19.1419C31.4731 19.6105 31.7088 19.9612 31.7088 19.9612C31.8707 21.6269 31.1593 23.4914 31.1593 23.4914Z" fill="#FFC3BD"/>
<path d="M34.749 19.9668C34.749 19.9668 34.181 19.9938 33.9325 19.6416" stroke="#263238" stroke-miterlimit="10" stroke-linecap="round" stroke-linejoin="round"/>
<path d="M33.8446 18.5299C33.8474 18.6378 33.9099 18.723 33.9852 18.7202C34.059 18.7174 34.1172 18.6293 34.1144 18.5214C34.1116 18.4135 34.0491 18.3283 33.9738 18.3311C33.8986 18.334 33.8403 18.422 33.8446 18.5299Z" fill="#263238"/>
<path d="M35.1395 18.5639C35.1424 18.6718 35.2048 18.757 35.2801 18.7541C35.3539 18.7513 35.4122 18.6633 35.4093 18.5553C35.4065 18.4474 35.344 18.3622 35.2687 18.3651C35.1935 18.3679 35.1353 18.4574 35.1395 18.5639Z" fill="#263238"/>
<path d="M34.6895 19.4459L34.7478 18.5754L35.1638 19.4019C35.1638 19.4019 34.9508 19.595 34.6895 19.4459Z" fill="#ED847E"/>
<path d="M33.9128 17.8483C33.9128 17.8483 33.5294 17.7375 33.3534 18.1081" stroke="#263238" stroke-miterlimit="10" stroke-linecap="round" stroke-linejoin="round"/>
<path d="M35.54 18.0087C35.54 18.0087 35.2788 17.7261 34.972 17.7971" stroke="#263238" stroke-miterlimit="10" stroke-linecap="round" stroke-linejoin="round"/>
<path d="M31.2758 19.1418H31.2772C32.9017 19.2 33.1033 17.3569 33.1033 17.3569C33.9056 17.7814 35.0757 17.0019 35.0757 17.0019L34.032 16.1101C34.032 16.1101 32.6177 16.3245 31.4703 17.1055C30.7958 17.567 30.996 18.473 31.2758 19.1418Z" fill="#263238"/>
<path d="M35.5969 17.5429C35.5969 17.5429 36.4376 16.982 36.0669 16.5801C35.6949 16.1783 33.4257 16.9436 31.7288 17.8823C31.7288 17.8823 35.6168 15.2837 36.6719 16.1058C37.5452 16.786 35.6083 17.7303 35.6665 17.7289L35.5969 17.5429Z" fill="#407BFF"/>
<path d="M30.8555 17.3527C30.8626 17.8539 31.0202 18.2132 31.0202 18.2132L34.8386 16.3672C34.8386 16.3672 34.6512 16.1272 34.2791 15.9156C34.086 15.8049 33.8432 15.7041 33.5521 15.6473C33.3107 15.6004 33.0381 15.5819 32.7313 15.6174C31.3326 15.775 30.8484 16.8514 30.8555 17.3527Z" fill="#407BFF"/>
<path d="M39.6253 34.3315C39.8752 34.5928 43.0887 33.9254 43.6496 34.2236C43.8867 34.35 43.9904 34.7958 44.2275 35.2786V35.2801C44.5527 35.9404 45.1306 36.6646 46.6472 36.7128C49.2714 36.7966 48.9547 34.1341 49.162 33.2679C49.162 33.2679 51.647 32.8149 51.7762 32.3804C51.9083 31.9473 51.7478 31.8777 51.7478 31.8777C51.7478 31.8777 48.6806 32.4429 48.0871 31.6704C48.0871 31.6704 47.9706 31.5369 47.6909 31.4049C47.6895 31.4049 47.6895 31.4035 47.688 31.4035C47.4523 31.2927 47.1016 31.1848 46.6103 31.1592C45.5296 31.1038 44.2105 31.4077 43.8427 32.0907C43.0929 33.488 39.878 33.1742 39.5784 33.5391C39.2802 33.9069 39.3754 34.0716 39.6253 34.3315Z" fill="#407BFF"/>
<path d="M47.7592 36.1492C47.7592 36.1492 52.0703 42.1146 48.5203 51.2949" stroke="#263238" stroke-miterlimit="10" stroke-linecap="round" stroke-linejoin="round"/>
<path d="M42.0693 39.2491C42.0693 39.2491 42.0693 39.2604 42.0708 39.2846C42.0708 39.2988 42.0736 39.3201 42.075 39.3442V39.3584C42.1205 39.9222 42.227 40.5029 42.3619 41.0667C42.5592 41.8945 42.8177 42.6826 43.0321 43.316C43.9409 46.0069 43.8358 48.9065 43.8358 48.9065C44.1369 48.533 44.6921 48.2647 45.3765 48.0772C47.8842 47.3885 52.1414 47.7563 52.1414 47.7563C52.9763 44.8268 52.6767 40.2431 51.8474 37.6729C51.0182 35.1027 48.7121 35.6806 48.7121 35.6806C48.7121 35.6806 46.2825 35.7516 45.9757 35.719C45.3197 35.6508 44.7645 35.6678 44.2973 35.7516C42.4116 36.0995 41.96 37.5834 42.0693 39.2491Z" fill="#407BFF"/>
<path d="M23.3522 50.4216C27.6165 54.267 35.8354 54.6702 41.95 54.2442L45.3778 48.0772L46.7666 45.5794L42.305 39.5657L42.0692 39.249C42.0692 39.249 42.0692 39.2618 42.0721 39.2845C42.0721 39.2987 42.0749 39.32 42.0763 39.3442V39.3584C42.1374 40.4305 42.5322 49.0343 39.384 51.1401C39.3755 51.1458 39.3656 51.1529 39.3585 51.1572C38.9438 51.4284 38.4695 51.5874 37.9243 51.603C32.1363 51.772 32.2982 44.2133 33.7693 42.6031L23.7285 40.5852C23.7285 40.5867 21.7434 45.5766 23.3522 50.4216Z" fill="#407BFF"/>
<path d="M34.5205 40.9658C34.5205 40.9658 35.462 41.7468 34.9763 42.7933C34.4907 43.8398 29.8104 41.8064 27.9672 41.4358C26.124 41.0652 23.9827 40.7031 23.0739 40.5142C22.1651 40.3253 22.2347 37.6941 22.9844 37.4612C23.7342 37.2269 31.0798 38.5276 32.2982 39.239C33.5151 39.9533 34.5205 40.9658 34.5205 40.9658Z" fill="#263238"/>
<path d="M32.1634 19.7923C32.3522 19.6006 32.3664 19.2953 32.2173 19.0709C31.9915 18.7301 31.5315 18.1877 31.0913 18.5924C30.4764 19.1575 31.5272 20.1927 31.9646 19.9428C32.0469 19.8959 32.1122 19.8448 32.1634 19.7923Z" fill="#FFC3BD"/>
<path opacity="0.2" d="M35.5969 17.5429C35.5969 17.5429 36.4375 16.982 36.0669 16.5802C35.9022 16.4013 35.4095 16.4439 34.7435 16.6285C34.37 16.7321 33.9355 16.8684 33.4868 17.0644C32.9032 17.3186 32.2812 17.6438 31.7274 17.8837C31.7274 17.8837 35.6154 15.2851 36.6704 16.1073C37.5437 16.7875 35.7275 17.6693 35.6651 17.7275L35.6338 17.6139L35.5969 17.5429Z" fill="black"/>
<path d="M35.1979 17.3C35.1979 17.3 36.0527 17.442 35.4634 18.3594L35.1979 17.3Z" fill="#263238"/>
<path d="M34.3813 16.7406C34.3813 16.7406 35.6665 16.2877 36.0243 16.5433C36.3807 16.7989 36.0087 17.2873 35.5969 17.5429L35.2688 17.5841L35.0757 17.0019L34.5745 16.9409L34.3813 16.7406Z" fill="#263238"/>
<path opacity="0.3" d="M32.6304 16.0463L32.9385 16.5035L34.2776 15.9171C34.0845 15.8063 33.8416 15.7055 33.5505 15.6487L32.6304 16.0463Z" fill="white"/>
<path opacity="0.1" d="M32.9286 21.4949C32.9286 21.4949 33.055 21.8584 33.3049 22.1438C33.3503 21.8513 33.427 21.6198 33.427 21.6198C33.427 21.6198 33.1018 21.5957 32.9286 21.4949Z" fill="black"/>
<path d="M45.6589 33.9838C45.7143 34.9679 46.1417 35.7716 46.6643 35.9661C46.6657 35.9661 46.6657 35.9661 46.6657 35.9661C46.7566 36.0002 46.8503 36.0158 46.944 36.0101C47.5887 35.9732 48.0573 35.0062 47.992 33.8517C47.9266 32.6987 47.3501 31.7913 46.7054 31.8282C46.4427 31.8439 46.2113 32.0114 46.031 32.2841C46.0295 32.2841 46.0295 32.2855 46.0295 32.2855C45.7697 32.6802 45.6206 33.2979 45.6589 33.9838Z" fill="#F5F5F5"/>
<path d="M45.6589 33.9839C45.7143 34.968 46.1417 35.7717 46.6643 35.9662C46.6657 35.9662 46.6657 35.9662 46.6657 35.9662C47.2607 35.9321 47.6952 35.039 47.6342 33.974C47.5731 32.9076 47.0406 32.0712 46.4456 32.1053C46.2965 32.1138 46.156 32.1777 46.0324 32.2842C46.031 32.2842 46.031 32.2856 46.031 32.2856C45.7697 32.6804 45.6206 33.2981 45.6589 33.9839Z" fill="white"/>
<path d="M22.6451 47.931C23.7428 47.1599 27.9914 46.4031 27.9914 46.4031C30.5715 46.3974 32.835 48.7234 33.1488 51.8076C33.4044 54.3153 32.294 56.5916 30.5105 57.631C30.5105 57.631 30.3628 57.6921 30.1115 57.7915C29.1672 58.165 26.7674 59.0738 25.3474 59.2683" fill="#263238"/>
<path opacity="0.3" d="M19.761 53.8842C19.4301 50.6314 21.394 47.7674 24.1475 47.4873C26.901 47.2072 29.4013 49.6171 29.7322 52.87C30.0631 56.1228 28.0992 58.9868 25.3457 59.2669C22.5922 59.547 20.0918 57.1371 19.761 53.8842Z" fill="black"/>
<path d="M41.8354 53.6965C41.5045 50.4436 43.4685 47.5796 46.2219 47.2996C48.9754 47.0195 51.4758 49.4294 51.8067 52.6822C52.1375 55.9351 50.1736 58.7991 47.4201 59.0792C44.6667 59.3592 42.1663 56.9493 41.8354 53.6965Z" fill="#263238"/>
<path d="M43.759 48.3868L46.3008 59.0467C46.6657 59.1064 47.0406 59.1191 47.4212 59.0808C47.4311 59.0794 47.4411 59.0794 47.4496 59.078C47.9366 58.953 47.7194 59.0879 48.2079 58.926C49.4504 58.5156 51.2552 57.7886 51.2552 57.7886C53.1665 56.8599 54.2471 54.5964 53.9844 52.012C53.6663 48.8809 51.4199 46.5422 48.7759 46.7339C48.7759 46.7339 47.5192 46.9654 46.2284 47.3033C45.6675 47.4496 45.0995 47.6157 44.6252 47.7918C44.6238 47.7918 44.6224 47.7918 44.6224 47.7932C44.3156 47.9551 44.0274 48.1553 43.759 48.3868Z" fill="#263238"/>
<path opacity="0.3" d="M41.8364 53.6977C42.1219 56.5022 44.019 58.6776 46.3009 59.0454C46.6659 59.105 47.0407 59.1178 47.4213 59.0795C47.4312 59.0781 47.4412 59.0781 47.4497 59.0766C47.9808 59.0184 48.482 58.8665 48.9407 58.6322C50.8591 57.6595 52.0732 55.2966 51.8077 52.6838C51.4768 49.4334 48.9819 47.0265 46.2299 47.302H46.2228C45.652 47.3602 45.1152 47.5292 44.6267 47.7905C44.6253 47.7905 44.6239 47.7905 44.6239 47.7919C44.3158 47.9552 44.0261 48.1568 43.7577 48.3883C42.403 49.5641 41.6163 51.5464 41.8364 53.6977Z" fill="black"/>
<path d="M42.5279 49.9573C42.5818 49.8366 42.7267 49.6917 42.8062 49.5852C43.4395 48.7176 44.8922 48.3953 45.8422 48.4705C46.5735 48.5302 47.2636 48.8028 47.8756 49.2004C48.5686 49.6491 49.0656 50.335 49.7514 50.8093C51.055 51.7081 53.033 51.684 54.3423 50.7567C54.4175 50.7042 54.4871 50.6474 54.5524 50.5849C54.693 50.4543 54.7669 50.2668 54.808 50.0808C54.862 49.8394 54.835 49.6023 54.7555 49.3737C54.4729 48.577 53.5244 47.8741 52.9265 47.4467C51.721 46.5862 50.291 46.0991 48.8156 45.9969C44.5897 45.7015 42.7934 49.3069 42.5279 49.9573Z" fill="#407BFF"/>
<path opacity="0.3" d="M42.8204 50.0709C43.7278 48.7616 44.8922 48.3953 45.8422 48.4705C46.5735 48.5302 47.2636 48.8028 47.8756 49.2004C48.5686 49.6491 49.0656 50.335 49.7514 50.8093C51.055 51.7081 53.033 51.684 54.3423 50.7567C54.4175 50.7042 54.4871 50.6474 54.5524 50.5849C54.693 50.4543 54.7669 50.2668 54.808 50.0808C54.862 49.8394 54.835 49.6023 54.7555 49.3737C54.3167 49.8806 53.0387 51.1018 51.3092 50.5054C49.1508 49.7599 48.6239 47.5447 46.315 47.5646C44.4832 47.5788 43.3543 49.0087 42.8204 50.0709Z" fill="black"/>
<g opacity="0.3">
<path opacity="0.3" d="M52.3159 47.0518C51.711 46.606 51.0038 46.3078 50.2754 46.1161C49.5441 45.9286 48.7787 45.8676 48.0261 45.9315C47.6498 45.9698 47.2749 46.028 46.91 46.126C46.545 46.2211 46.1829 46.3362 45.8379 46.4881L45.5794 46.6017L45.3267 46.7281C45.1563 46.8076 44.9958 46.907 44.8311 46.9979C44.6692 47.093 44.5144 47.2009 44.3568 47.3018C44.202 47.4083 44.0529 47.5219 43.901 47.6326C44.5272 47.2208 45.1861 46.8616 45.8791 46.5903C46.5706 46.3163 47.2991 46.1345 48.0375 46.0735C48.7759 45.9996 49.5242 46.0607 50.2498 46.2226C50.6119 46.3035 50.9698 46.4143 51.3148 46.552C51.6613 46.6883 51.9993 46.8502 52.3159 47.0518Z" fill="black"/>
</g>
<g opacity="0.3">
<path opacity="0.3" d="M47.7137 46.0368C47.9111 45.4503 47.9778 44.8312 48.0303 44.2178C48.0772 43.6029 48.0857 42.9852 48.0744 42.3675C48.0559 41.7512 48.019 41.1349 47.9622 40.5215L47.8599 39.6028C47.8145 39.2975 47.7747 38.9936 47.725 38.6897L47.8543 40.53L47.9054 41.4502C47.9139 41.7569 47.9324 42.0636 47.9338 42.3703C47.9579 42.9838 47.9466 43.5972 47.9238 44.2107C47.9139 44.5174 47.8898 44.8227 47.8599 45.128C47.8259 45.4319 47.7875 45.7372 47.7137 46.0368Z" fill="black"/>
</g>
<path opacity="0.3" d="M39.3825 51.14C42.3474 49.2315 42.4653 44.3126 42.3616 41.0665C42.3446 40.5085 42.3205 40.0015 42.3034 39.5656C42.2807 38.972 42.2693 38.5162 42.3048 38.2549C42.613 36.0213 44.3042 35.7529 44.3042 35.7529C44.3014 35.7529 44.2999 35.7515 44.2985 35.7515C42.4113 36.0979 41.9598 37.5818 42.0691 39.2475C42.0691 39.2475 42.0691 39.2603 42.072 39.283C42.072 39.2972 42.0748 39.3185 42.0762 39.3426V39.3568C42.1373 40.4304 42.532 49.0341 39.3825 51.14Z" fill="black"/>
<path opacity="0.2" d="M39.6255 34.3315C39.8754 34.5928 43.0889 33.9254 43.6498 34.2236C43.8869 34.35 43.9906 34.7958 44.2277 35.2786V35.2801C44.2291 35.2815 44.2291 35.2829 44.2305 35.2829C44.9008 36.3493 45.8422 36.5155 45.9005 36.524C44.7758 35.6748 44.462 33.6215 45.0201 32.325C45.5753 31.0399 47.5746 31.3651 47.6882 31.4035C47.4525 31.2927 47.1018 31.1848 46.6105 31.1592C45.5298 31.1038 44.2107 31.4077 43.8429 32.0907C43.0931 33.488 39.8782 33.1742 39.5786 33.5391C39.2804 33.9069 39.3756 34.0716 39.6255 34.3315Z" fill="black"/>
<path d="M42.1402 33.092C42.1402 33.092 42.4399 33.5677 42.3632 34.2735L39.641 34.5802C39.641 34.5802 39.2079 34.1514 39.2946 33.3959C39.296 33.3945 41.9926 33.1233 42.1402 33.092Z" fill="#263238"/>
<path d="M50.4059 32.9912C50.4059 32.9912 50.6772 32.4147 50.352 32.0512C51.079 31.9859 51.5292 31.9134 51.9978 31.8396C52.0659 32.0512 52.1014 32.2557 51.8572 32.5766C51.6129 32.8989 50.4059 32.9912 50.4059 32.9912Z" fill="#263238"/>
<path d="M51.9184 36.5994C52.3898 37.3676 52.7931 38.5973 52.8286 40.5612" stroke="#407BFF" stroke-miterlimit="10" stroke-linecap="round" stroke-linejoin="round"/>
<path d="M50.3662 35.3328C50.3662 35.3328 50.7851 35.3924 51.2793 35.8255" stroke="#407BFF" stroke-miterlimit="10" stroke-linecap="round" stroke-linejoin="round"/>
<path d="M29.1897 27.9302L30.9818 28.1489C30.9818 28.1489 31.2942 31.4433 31.5839 32.0823C31.5839 32.0823 37.0963 32.8405 39.3541 32.7738L40.5 33.552L40.5398 34.9066L39.4166 34.9393L39.0545 34.0816C39.0545 34.0816 38.2962 34.049 38.1215 33.6215C38.1215 33.6215 32.2655 35.0359 30.1085 33.4227C30.1085 33.4227 28.8078 31.5128 29.1897 27.9302Z" fill="#FFC3BD"/>
<path opacity="0.2" d="M43.7817 53.2715C43.8343 55.0578 45.0029 56.4722 46.396 56.4324C46.5862 56.4267 46.7708 56.3955 46.9469 56.3373C48.0645 55.9823 48.8668 54.6673 48.8227 53.1252C48.7787 51.6356 47.958 50.4031 46.8773 50.0594C46.6629 49.9913 46.4386 49.9572 46.2085 49.9643C44.8141 50.0041 43.7292 51.4851 43.7817 53.2715Z" fill="#FAFAFA"/>
<path d="M45.064 53.2673C45.108 54.791 45.9117 56.0449 46.9469 56.3374C48.0645 55.9824 48.8668 54.6675 48.8227 53.1253C48.7787 51.6358 47.958 50.4032 46.8773 50.0596C45.8024 50.3493 45.0171 51.6869 45.064 53.2673Z" fill="#263238"/>
<path opacity="0.2" d="M21.9023 53.4106C21.9549 55.197 23.1235 56.6113 24.5166 56.5716C24.7068 56.5659 24.8914 56.5346 25.0675 56.4764C26.1851 56.1214 26.9874 54.8065 26.9433 53.2644C26.8993 51.7748 26.0786 50.5422 24.9979 50.1986C24.7835 50.1304 24.5592 50.0964 24.3291 50.1035C22.9361 50.1446 21.8512 51.6243 21.9023 53.4106Z" fill="#FAFAFA"/>
<path d="M23.1846 53.4077C23.2286 54.9314 24.0323 56.1852 25.0675 56.4778C26.1851 56.1228 26.9874 54.8078 26.9433 53.2657C26.8993 51.7762 26.0786 50.5436 24.9979 50.2C23.923 50.4896 23.1391 51.8273 23.1846 53.4077Z" fill="#263238"/>
<path d="M19.7071 48.702C19.683 50.4585 22.3568 51.6215 26.8313 52.3542C28.2967 52.5942 29.5108 52.5559 30.4821 52.3968C32.4743 52.0688 33.4399 51.2296 33.4399 51.2296C33.4399 51.2296 32.9344 45.1577 27.9318 44.3894C24.528 43.8669 21.9592 45.2386 20.6585 46.7211C20.0465 47.4169 19.7142 48.1397 19.7071 48.702Z" fill="#407BFF"/>
<path opacity="0.3" d="M19.707 48.702C19.6828 50.4585 22.3567 51.6215 26.8311 52.3542C28.2966 52.5942 29.5107 52.5559 30.4819 52.3968C30.2675 50.7482 29.3048 46.4243 25.12 45.9756C23.2215 45.7725 21.756 46.1545 20.6598 46.7211C20.0464 47.4169 19.7141 48.1397 19.707 48.702Z" fill="black"/>
<g opacity="0.3">
<path opacity="0.3" d="M33.1501 51.2552C33.0664 50.4288 32.8548 49.6165 32.5623 48.8355C32.2697 48.0545 31.8693 47.3119 31.3652 46.643C31.111 46.3093 30.8228 46.0026 30.5104 45.7243C30.1994 45.4446 29.8614 45.1918 29.4936 44.9916C28.7694 44.5684 27.9458 44.3384 27.1222 44.2532C27.5298 44.3327 27.9373 44.4122 28.3221 44.5627C28.5195 44.6224 28.7055 44.7147 28.8958 44.7928C29.0776 44.8893 29.265 44.9745 29.4383 45.0867C29.6172 45.189 29.7819 45.3125 29.9509 45.4275C30.1113 45.5553 30.2761 45.6789 30.4237 45.8209C30.7276 46.0978 31.0059 46.4016 31.2516 46.7297C31.7557 47.3786 32.149 48.1113 32.46 48.8753C32.6176 49.2573 32.7525 49.6478 32.8661 50.0454C32.9854 50.443 33.0806 50.8462 33.1501 51.2552Z" fill="black"/>
</g>
<path d="M39.8625 49.2502L39.5686 50.2528L36.4716 49.9943L36.4304 48.5928L39.8625 49.2502Z" fill="#407BFF"/>
</g>
<defs>
<clipPath id="clip0_25_216">
<rect width="71" height="52.1751" fill="white" transform="matrix(-1 0 0 1 72 7.11597)"/>
</clipPath>
</defs>
</svg>
