<svg width="18" height="15" viewBox="0 0 18 15" fill="none" xmlns="http://www.w3.org/2000/svg">
<path fill-rule="evenodd" clip-rule="evenodd" d="M10.8763 14.0452C10.8205 14.0452 10.763 14.0427 10.7055 14.0368C9.97217 13.9643 9.39717 13.4468 9.23884 12.7177L7.00301 2.39099L4.70051 7.70932C4.56801 8.01432 4.26717 8.21182 3.93551 8.21182H1.43551C0.974673 8.21182 0.602173 7.83849 0.602173 7.37849C0.602173 6.91765 0.974673 6.54515 1.43551 6.54515H3.38884L5.47717 1.72099C5.77301 1.04099 6.42467 0.645154 7.16551 0.71932C7.89884 0.79182 8.47384 1.30932 8.63217 2.03849L10.868 12.3652L13.1705 7.04682C13.303 6.74182 13.603 6.54515 13.9355 6.54515H16.4355C16.8963 6.54515 17.2688 6.91765 17.2688 7.37849C17.2688 7.83849 16.8963 8.21182 16.4355 8.21182H14.4822L12.3938 13.0352C12.1213 13.6627 11.5372 14.0452 10.8763 14.0452Z" fill="#FF3A29"/>
</svg>
