<svg width="18" height="15" viewBox="0 0 18 15" fill="none" xmlns="http://www.w3.org/2000/svg">
<path fill-rule="evenodd" clip-rule="evenodd" d="M11.1624 14.1675C11.1065 14.1675 11.049 14.165 10.9915 14.1591C10.2582 14.0866 9.68318 13.5691 9.52485 12.84L7.28902 2.5133L4.98652 7.83164C4.85402 8.13664 4.55318 8.33414 4.22152 8.33414H1.72152C1.26068 8.33414 0.888184 7.9608 0.888184 7.5008C0.888184 7.03997 1.26068 6.66747 1.72152 6.66747H3.67485L5.76318 1.8433C6.05902 1.1633 6.71068 0.767468 7.45152 0.841635C8.18485 0.914135 8.75985 1.43163 8.91818 2.1608L11.154 12.4875L13.4565 7.16914C13.589 6.86414 13.889 6.66747 14.2215 6.66747H16.7215C17.1824 6.66747 17.5548 7.03997 17.5548 7.5008C17.5548 7.9608 17.1824 8.33414 16.7215 8.33414H14.7682L12.6798 13.1575C12.4073 13.785 11.8232 14.1675 11.1624 14.1675Z" fill="white"/>
</svg>
