<svg width="18" height="12" viewBox="0 0 18 12" fill="none" xmlns="http://www.w3.org/2000/svg">
<path d="M1.99295 6.98438C1.77572 6.98416 1.56433 7.05468 1.39075 7.18527C1.21716 7.31587 1.09082 7.49943 1.03083 7.70821C0.970843 7.91699 0.980467 8.13962 1.05825 8.34244C1.13603 8.54527 1.27774 8.71725 1.46195 8.83238L4.14995 11.5204C4.24286 11.6132 4.35315 11.6869 4.47451 11.7371C4.59588 11.7873 4.72595 11.8131 4.8573 11.8131C4.98865 11.813 5.1187 11.7871 5.24004 11.7368C5.36137 11.6865 5.4716 11.6128 5.56445 11.5199C5.65729 11.427 5.73093 11.3167 5.78115 11.1953C5.83137 11.0739 5.8572 10.9439 5.85715 10.8125C5.8571 10.6812 5.83119 10.5511 5.78088 10.4298C5.73057 10.3085 5.65686 10.1982 5.56395 10.1054L4.44295 8.98537H11.9929C12.2582 8.98537 12.5125 8.88002 12.7001 8.69248C12.8876 8.50495 12.9929 8.25059 12.9929 7.98537C12.9929 7.72016 12.8876 7.4658 12.7001 7.27827C12.5125 7.09073 12.2582 6.98537 11.9929 6.98537H1.99295V6.98438Z" fill="#675FB5"/>
<path d="M16.007 5.0162C16.2242 5.01642 16.4356 4.9459 16.6092 4.81531C16.7827 4.68471 16.9091 4.50114 16.9691 4.29237C17.0291 4.08359 17.0194 3.86096 16.9417 3.65813C16.8639 3.45531 16.7222 3.28333 16.538 3.1682L13.85 0.480203C13.6623 0.292695 13.4079 0.187406 13.1426 0.1875C12.8773 0.187594 12.623 0.293062 12.4355 0.480703C12.248 0.668344 12.1427 0.922786 12.1428 1.18806C12.1428 1.45333 12.2483 1.70769 12.436 1.8952L13.557 3.0152H6.00696C5.74174 3.0152 5.48739 3.12056 5.29985 3.3081C5.11232 3.49563 5.00696 3.74999 5.00696 4.0152C5.00696 4.28042 5.11232 4.53477 5.29985 4.72231C5.48739 4.90985 5.74174 5.0152 6.00696 5.0152H16.007V5.0162Z" fill="#675FB5"/>
</svg>
