<svg width="30" height="38" viewBox="0 0 30 38" fill="none" xmlns="http://www.w3.org/2000/svg">
<path fill-rule="evenodd" clip-rule="evenodd" d="M26.0264 0.666626H7.69312L0.359787 7.99996V33.6666C0.359787 34.6391 0.746096 35.5717 1.43373 36.2594C2.12136 36.947 3.05399 37.3333 4.02645 37.3333H26.0264C26.9989 37.3333 27.9315 36.947 28.6192 36.2594C29.3068 35.5717 29.6931 34.6391 29.6931 33.6666V4.33329C29.6931 3.36083 29.3068 2.4282 28.6192 1.74057C27.9315 1.05293 26.9989 0.666626 26.0264 0.666626V0.666626ZM9.21112 4.33329H26.0264V33.6666H4.02645V9.51796H9.21112V4.33329ZM9.52645 22.6666C10.0127 22.6666 10.479 22.4735 10.8228 22.1297C11.1666 21.7858 11.3598 21.3195 11.3598 20.8333C11.3598 20.3471 11.1666 19.8807 10.8228 19.5369C10.479 19.1931 10.0127 19 9.52645 19C9.04022 19 8.57391 19.1931 8.23009 19.5369C7.88627 19.8807 7.69312 20.3471 7.69312 20.8333C7.69312 21.3195 7.88627 21.7858 8.23009 22.1297C8.57391 22.4735 9.04022 22.6666 9.52645 22.6666ZM22.3598 26.3333L16.7315 20.8333L11.3598 26.3333L9.52645 24.5L7.69312 26.3333V30H22.3598V26.3333Z" fill="#92929D"/>
</svg>
